<!DOCTYPE svg PUBLIC "-//W3C//DTD SVG 1.1//EN" "http://www.w3.org/Graphics/SVG/1.1/DTD/svg11.dtd">
<!-- Uploaded to: SVG Repo, www.svgrepo.com, Transformed by: SVG Repo Mixer Tools -->
<svg width="800px" height="800px" viewBox="-2.4 -2.4 28.80 28.80" fill="none" xmlns="http://www.w3.org/2000/svg">
<g id="SVGRepo_bgCarrier" stroke-width="0" transform="translate(3.7200000000000006,3.7200000000000006), scale(0.69)">
<path transform="translate(-2.4, -2.4), scale(1.7999999999999998)" fill="#D01E1E" d="M9.166.33a2.25 2.25 0 00-2.332 0l-5.25 3.182A2.25 2.25 0 00.5 5.436v5.128a2.25 2.25 0 001.084 1.924l5.25 3.182a2.25 2.25 0 002.332 0l5.25-3.182a2.25 2.25 0 001.084-1.924V5.436a2.25 2.25 0 00-1.084-1.924L9.166.33z" strokewidth="0"/>
</g>
<g id="SVGRepo_tracerCarrier" stroke-linecap="round" stroke-linejoin="round" stroke="#CCCCCC" stroke-width="0.192"/>
<g id="SVGRepo_iconCarrier"> <path d="M12 7V13" stroke="#000000" stroke-width="1.5" stroke-linecap="round"/> <circle cx="12" cy="16" r="1" fill="#000000"/> <path d="M7.84308 3.80211C9.8718 2.6007 10.8862 2 12 2C13.1138 2 14.1282 2.6007 16.1569 3.80211L16.8431 4.20846C18.8718 5.40987 19.8862 6.01057 20.4431 7C21 7.98943 21 9.19084 21 11.5937V12.4063C21 14.8092 21 16.0106 20.4431 17C19.8862 17.9894 18.8718 18.5901 16.8431 19.7915L16.1569 20.1979C14.1282 21.3993 13.1138 22 12 22C10.8862 22 9.8718 21.3993 7.84308 20.1979L7.15692 19.7915C5.1282 18.5901 4.11384 17.9894 3.55692 17C3 16.0106 3 14.8092 3 12.4063V11.5937C3 9.19084 3 7.98943 3.55692 7C4.11384 6.01057 5.1282 5.40987 7.15692 4.20846L7.84308 3.80211Z" stroke="#000000" stroke-width="1.5"/> </g>
</svg>